<svg viewBox="0 0 100 79" fill="none" xmlns="http://www.w3.org/2000/svg">
<ellipse cx="46.5" cy="19.1131" rx="5.54298" ry="5.50459" fill="#FF8E3C"/>
<path fill-rule="evenodd" clip-rule="evenodd" d="M33.8954 13.3792C35.5912 5.71925 67.0014 -8.8685 73 26.3052C73 37.7446 65.8227 47.1424 55.8086 49.9631C54.7376 50.2647 54.274 48.6405 55.1444 47.9434C65.9144 39.3164 64.9762 27.4366 64.9224 25.8809C64.6097 16.8297 56.6448 8.48555 46.7834 8.48555C41.6333 8.48555 37.0901 10.1888 33.8954 13.3792Z" fill="#155263"/>
<path fill-rule="evenodd" clip-rule="evenodd" d="M33.9405 13.336C30.7689 16.491 28.4993 21.4698 28.4993 28.7263C28.4993 36.2205 32.8395 39.7947 36.3496 40.497C27.2135 41.3608 17.6461 26.1916 27.9285 7.36378C32.9455 2.37315 39.7163 0 46.7727 0C61.2769 0 72.9025 11.7913 72.9788 26.1916C73.1196 28.4993 72.5539 32.3875 71.4206 35.063C74.7637 3.80201 44.7896 0.0632411 33.9405 13.336Z" fill="#199FB1"/>
<path fill-rule="evenodd" clip-rule="evenodd" d="M36.4073 40.4694C38.2364 40.8352 39.7454 40.4476 40.7217 39.695C41.6186 39.0036 42.6026 37.5911 42.6026 34.7353V32.3338C42.6026 29.9932 44.5119 28.0957 46.8672 28.0957C49.2225 28.0957 51.1318 29.9932 51.1318 32.3338V34.7353C51.1318 39.7199 49.2905 43.8169 45.9494 46.3924C42.6877 48.9066 38.5461 49.5432 34.7245 48.7788C26.9458 47.2231 20 39.9312 20 28.6608C20 19.5535 22.8999 12.258 27.9565 7.22953C32.2444 2.96549 37.8089 0.606118 43.7398 0C20 3.93885 20.8529 38.1258 36.4073 40.4694Z" fill="#2EC2C2"/>
<path d="M3.86426 73H1.79883V63.2793H3.86426V73ZM1.67578 60.7041C1.67578 60.335 1.77539 60.0508 1.97461 59.8516C2.17969 59.6523 2.46973 59.5527 2.84473 59.5527C3.20801 59.5527 3.48926 59.6523 3.68848 59.8516C3.89355 60.0508 3.99609 60.335 3.99609 60.7041C3.99609 61.0557 3.89355 61.334 3.68848 61.5391C3.48926 61.7383 3.20801 61.8379 2.84473 61.8379C2.46973 61.8379 2.17969 61.7383 1.97461 61.5391C1.77539 61.334 1.67578 61.0557 1.67578 60.7041ZM5.98242 69.0537V67.2959H10.5V69.0537H5.98242ZM21.1787 73H19.1045V67.0234C19.1045 66.2734 18.9521 65.7139 18.6475 65.3447C18.3486 64.9756 17.8711 64.791 17.2148 64.791C16.3418 64.791 15.7031 65.0488 15.2988 65.5645C14.8945 66.0801 14.6924 66.9443 14.6924 68.1572V73H12.627V63.2793H14.2441L14.5342 64.5537H14.6396C14.9326 64.0908 15.3486 63.7334 15.8877 63.4814C16.4268 63.2295 17.0244 63.1035 17.6807 63.1035C20.0127 63.1035 21.1787 64.29 21.1787 66.6631V73ZM32.6748 68.1221C32.6748 69.71 32.2676 70.9492 31.4531 71.8398C30.6387 72.7305 29.5049 73.1758 28.0518 73.1758C27.1436 73.1758 26.3408 72.9707 25.6436 72.5605C24.9463 72.1504 24.4102 71.5615 24.0352 70.7939C23.6602 70.0264 23.4727 69.1357 23.4727 68.1221C23.4727 66.5459 23.877 65.3154 24.6855 64.4307C25.4941 63.5459 26.6338 63.1035 28.1045 63.1035C29.5107 63.1035 30.624 63.5576 31.4443 64.4658C32.2646 65.3682 32.6748 66.5869 32.6748 68.1221ZM25.5996 68.1221C25.5996 70.3662 26.4287 71.4883 28.0869 71.4883C29.7275 71.4883 30.5479 70.3662 30.5479 68.1221C30.5479 65.9014 29.7217 64.791 28.0693 64.791C27.2021 64.791 26.5723 65.0781 26.1797 65.6523C25.793 66.2266 25.5996 67.0498 25.5996 68.1221ZM41.5869 70.2314C41.5869 71.1807 41.2412 71.9102 40.5498 72.4199C39.8584 72.9238 38.8682 73.1758 37.5791 73.1758C36.2842 73.1758 35.2441 72.9795 34.459 72.5869V70.8027C35.6016 71.3301 36.665 71.5938 37.6494 71.5938C38.9209 71.5938 39.5566 71.21 39.5566 70.4424C39.5566 70.1963 39.4863 69.9912 39.3457 69.8271C39.2051 69.6631 38.9736 69.4932 38.6514 69.3174C38.3291 69.1416 37.8809 68.9424 37.3066 68.7197C36.1875 68.2861 35.4287 67.8525 35.0303 67.4189C34.6377 66.9854 34.4414 66.4229 34.4414 65.7314C34.4414 64.8994 34.7754 64.2549 35.4434 63.7979C36.1172 63.335 37.0312 63.1035 38.1855 63.1035C39.3281 63.1035 40.4092 63.335 41.4287 63.7979L40.7607 65.3535C39.7119 64.9199 38.8301 64.7031 38.1152 64.7031C37.0254 64.7031 36.4805 65.0137 36.4805 65.6348C36.4805 65.9395 36.6211 66.1973 36.9023 66.4082C37.1895 66.6191 37.8105 66.9092 38.7656 67.2783C39.5684 67.5889 40.1514 67.873 40.5146 68.1309C40.8779 68.3887 41.1475 68.6875 41.3232 69.0273C41.499 69.3613 41.5869 69.7627 41.5869 70.2314ZM48.0732 73.1758C46.5615 73.1758 45.3779 72.7363 44.5225 71.8574C43.6729 70.9727 43.248 69.7568 43.248 68.21C43.248 66.6221 43.6436 65.374 44.4346 64.4658C45.2256 63.5576 46.3125 63.1035 47.6953 63.1035C48.9785 63.1035 49.9922 63.4932 50.7363 64.2725C51.4805 65.0518 51.8525 66.124 51.8525 67.4893V68.6055H45.375C45.4043 69.5488 45.6592 70.2754 46.1396 70.7852C46.6201 71.2891 47.2969 71.541 48.1699 71.541C48.7441 71.541 49.2773 71.4883 49.7695 71.3828C50.2676 71.2715 50.8008 71.0898 51.3691 70.8379V72.5166C50.8652 72.7568 50.3555 72.9268 49.8398 73.0264C49.3242 73.126 48.7354 73.1758 48.0732 73.1758ZM47.6953 64.668C47.0391 64.668 46.5117 64.876 46.1133 65.292C45.7207 65.708 45.4863 66.3145 45.4102 67.1113H49.8223C49.8105 66.3086 49.6172 65.7021 49.2422 65.292C48.8672 64.876 48.3516 64.668 47.6953 64.668ZM62.7949 73.1758C61.3242 73.1758 60.2051 72.748 59.4375 71.8926C58.6758 71.0312 58.2949 69.7979 58.2949 68.1924C58.2949 66.5576 58.6934 65.3008 59.4902 64.4219C60.293 63.543 61.4502 63.1035 62.9619 63.1035C63.9873 63.1035 64.9102 63.2939 65.7305 63.6748L65.1064 65.3359C64.2334 64.9961 63.5127 64.8262 62.9443 64.8262C61.2627 64.8262 60.4219 65.9424 60.4219 68.1748C60.4219 69.2646 60.6299 70.085 61.0459 70.6357C61.4678 71.1807 62.083 71.4531 62.8916 71.4531C63.8115 71.4531 64.6816 71.2246 65.502 70.7676V72.5693C65.1328 72.7861 64.7373 72.9414 64.3154 73.0352C63.8994 73.1289 63.3926 73.1758 62.7949 73.1758ZM66.9434 69.0537V67.2959H71.4609V69.0537H66.9434ZM78.9668 73H76.9014V64.7031C76.9014 63.7129 76.9248 62.9277 76.9717 62.3477C76.8369 62.4883 76.6699 62.6436 76.4707 62.8135C76.2773 62.9834 75.6211 63.5225 74.502 64.4307L73.4648 63.1211L77.2441 60.1504H78.9668V73ZM91.8779 65.6348C91.8779 68.166 91.3682 70.0557 90.3486 71.3037C89.3291 72.5518 87.7939 73.1758 85.7432 73.1758C84.9639 73.1758 84.4043 73.1289 84.0645 73.0352V71.3037C84.5859 71.4502 85.1104 71.5234 85.6377 71.5234C87.0322 71.5234 88.0723 71.1484 88.7578 70.3984C89.4434 69.6484 89.8184 68.4707 89.8828 66.8652H89.7773C89.4316 67.3926 89.0127 67.7734 88.5205 68.0078C88.0342 68.2422 87.4629 68.3594 86.8066 68.3594C85.6699 68.3594 84.7764 68.0049 84.126 67.2959C83.4756 66.5869 83.1504 65.6143 83.1504 64.3779C83.1504 63.0361 83.5254 61.9697 84.2754 61.1787C85.0312 60.3818 86.0596 59.9834 87.3604 59.9834C88.2744 59.9834 89.0713 60.2061 89.751 60.6514C90.4307 61.0967 90.9551 61.7441 91.3242 62.5938C91.6934 63.4375 91.8779 64.4512 91.8779 65.6348ZM87.3955 61.6973C86.6807 61.6973 86.1328 61.9316 85.752 62.4004C85.3711 62.8633 85.1807 63.5166 85.1807 64.3604C85.1807 65.0928 85.3564 65.6699 85.708 66.0918C86.0654 66.5078 86.6045 66.7158 87.3252 66.7158C88.0225 66.7158 88.6084 66.5078 89.083 66.0918C89.5576 65.6758 89.7949 65.1895 89.7949 64.6328C89.7949 64.1113 89.6924 63.625 89.4873 63.1738C89.2881 62.7168 89.0068 62.3564 88.6436 62.0928C88.2803 61.8291 87.8643 61.6973 87.3955 61.6973Z" fill="#155263"/>
<path d="M96.2181 55.3899C95.8245 55.3899 95.5213 55.5336 95.3085 55.821C95.0957 56.1049 94.9894 56.4988 94.9894 57.0027C94.9894 57.5243 95.0851 57.9253 95.2766 58.2056C95.4681 58.4859 95.7819 58.6261 96.2181 58.6261C96.4131 58.6261 96.6223 58.5995 96.8457 58.5462C97.0691 58.493 97.2624 58.4291 97.4255 58.3546V59.1956C97.0177 59.3766 96.6011 59.4671 96.1755 59.4671C95.477 59.4671 94.9344 59.2542 94.5479 58.8283C94.1649 58.399 93.9734 57.7904 93.9734 57.0027C93.9734 56.2433 94.1684 55.6454 94.5585 55.2089C94.9486 54.7689 95.4911 54.5489 96.1862 54.5489C96.6755 54.5489 97.1613 54.6731 97.6436 54.9215L97.2979 55.6826C96.922 55.4875 96.5621 55.3899 96.2181 55.3899ZM92 57.0027C92 56.293 92.1773 55.6276 92.5319 55.0067C92.8865 54.3857 93.3741 53.896 93.9947 53.5376C94.6152 53.1792 95.2837 53 96 53C96.7092 53 97.3741 53.1774 97.9947 53.5323C98.6152 53.8871 99.1046 54.375 99.4628 54.996C99.8209 55.617 100 56.2859 100 57.0027C100 57.7017 99.828 58.3582 99.484 58.9721C99.1401 59.5859 98.6578 60.0774 98.0372 60.4464C97.4167 60.8155 96.7376 61 96 61C95.266 61 94.5887 60.8173 93.9681 60.4518C93.3475 60.0827 92.8635 59.5913 92.516 58.9774C92.172 58.3635 92 57.7053 92 57.0027ZM92.6543 57.0027C92.6543 57.6059 92.8032 58.1666 93.1011 58.6846C93.4025 59.1992 93.8121 59.6055 94.3298 59.9035C94.8475 60.2016 95.4043 60.3506 96 60.3506C96.6028 60.3506 97.1631 60.1998 97.6809 59.8982C98.1986 59.593 98.6046 59.185 98.8989 58.674C99.1968 58.1595 99.3457 57.6024 99.3457 57.0027C99.3457 56.4065 99.195 55.8494 98.8936 55.3313C98.5957 54.8097 98.1862 54.3999 97.6649 54.1018C97.1472 53.8037 96.5922 53.6547 96 53.6547C95.4043 53.6547 94.8493 53.802 94.3351 54.0965C93.8245 54.391 93.4167 54.7973 93.1117 55.3154C92.8067 55.8334 92.6543 56.3959 92.6543 57.0027Z" fill="#155263"/>
</svg>
