<svg width="53" height="50" fill="none" xmlns="http://www.w3.org/2000/svg"><ellipse cx="26.5" cy="19.113" rx="5.543" ry="5.505" fill="#FF8E3C"/><path fill-rule="evenodd" clip-rule="evenodd" d="M13.895 13.38C15.591 5.72 47.001-8.869 53 26.304c0 11.44-7.177 20.837-17.191 23.658-1.071.302-1.535-1.322-.665-2.02 10.77-8.627 9.832-20.506 9.778-22.062-.312-9.051-8.277-17.395-18.139-17.395-5.15 0-9.693 1.703-12.888 4.893z" fill="#155263"/><path fill-rule="evenodd" clip-rule="evenodd" d="M13.94 13.336C10.77 16.491 8.5 21.47 8.5 28.726c0 7.495 4.34 11.069 7.85 11.771-9.137.864-18.704-14.305-8.421-33.133C12.945 2.374 19.716 0 26.773 0c14.504 0 26.13 11.791 26.206 26.192.14 2.307-.425 6.196-1.558 8.871 3.343-31.261-26.631-35-37.48-21.727z" fill="#199FB1"/><path fill-rule="evenodd" clip-rule="evenodd" d="M16.407 40.47c1.83.365 3.338-.022 4.315-.775.897-.691 1.88-2.104 1.88-4.96v-2.401c0-2.34 1.91-4.238 4.265-4.238 2.355 0 4.265 1.897 4.265 4.238v2.401c0 4.985-1.841 9.082-5.183 11.657-3.261 2.515-7.403 3.151-11.225 2.387C6.947 47.223 0 39.93 0 28.66 0 19.553 2.9 12.258 7.957 7.23 12.244 2.965 17.809.606 23.74 0 0 3.939.853 38.126 16.407 40.47z" fill="#2EC2C2"/></svg>