<svg xmlns="http://www.w3.org/2000/svg" viewBox="0 0 92.84 99.26"><defs><style>.cls-1,.cls-3,.cls-4,.cls-5{fill-rule:evenodd;}.cls-2{fill:#ff8e3c;}.cls-3{fill:#155263;}.cls-4{fill:#199fb1;}.cls-5{fill:#2ec2c2;}</style></defs><title>Asset 1</title><g id="Layer_2" data-name="Layer 2"><g id="Layer_1-2" data-name="Layer 1"><path d="M.2,98.73V81.59h2V98.73Z"/><path class="cls-1" d="M0,98.93V81.39H2.39V98.93Zm.2-.2h2V81.59H.2Z"/><path d="M18.37,98.73H16.09L6.73,84.35H6.64c.12,1.69.18,3.23.18,4.64v9.74H5V81.59H7.23l9.34,14.32h.1c0-.21-.05-.88-.11-2s-.07-2-.06-2.46V81.59h1.87Z"/><path class="cls-1" d="M18.57,98.93H16l-9.1-14C7,86.4,7,87.75,7,89v9.94H4.78V81.39H7.34l9.09,13.94c0-.34,0-.82-.07-1.43-.05-1.15-.07-2-.06-2.48v-10h2.27Zm-2.07-7.5q0,.73.06,2.46c0,.85.07,1.44.09,1.78v0a.86.86,0,0,1,0,.15v0h-.1L7.23,81.59H5V98.73H6.82V89c0-1.34-.05-2.8-.17-4.39v-.25h.09l9.36,14.38h2.28V81.59H16.5Z"/><path d="M36,90.14a9.43,9.43,0,0,1-2.09,6.47A7.29,7.29,0,0,1,28.16,99a7.41,7.41,0,0,1-5.84-2.31,9.51,9.51,0,0,1-2.05-6.54,9.34,9.34,0,0,1,2.06-6.48,7.44,7.44,0,0,1,5.86-2.31A7.3,7.3,0,0,1,34,83.67,9.39,9.39,0,0,1,36,90.14Zm-13.65,0a8.18,8.18,0,0,0,1.47,5.28,5.27,5.27,0,0,0,4.31,1.79,5.21,5.21,0,0,0,4.31-1.79,8.29,8.29,0,0,0,1.45-5.28,8.18,8.18,0,0,0-1.45-5.24,5.16,5.16,0,0,0-4.28-1.79,5.31,5.31,0,0,0-4.34,1.8A8.09,8.09,0,0,0,22.38,90.14Z"/><path class="cls-1" d="M22.17,96.79h0a9.76,9.76,0,0,1-2.1-6.68,9.54,9.54,0,0,1,2.11-6.61,7.65,7.65,0,0,1,6-2.38,7.47,7.47,0,0,1,5.91,2.42,9.56,9.56,0,0,1,2.13,6.6,9.63,9.63,0,0,1-2.14,6.6,7.5,7.5,0,0,1-5.93,2.42A7.62,7.62,0,0,1,22.17,96.79Zm11.77-.18A9.43,9.43,0,0,0,36,90.14,9.39,9.39,0,0,0,34,83.67a7.3,7.3,0,0,0-5.76-2.35,7.44,7.44,0,0,0-5.86,2.31,9.34,9.34,0,0,0-2.06,6.48,9.51,9.51,0,0,0,2.05,6.54A7.41,7.41,0,0,0,28.16,99,7.29,7.29,0,0,0,33.94,96.61ZM32.31,85h0a5,5,0,0,0-4.12-1.71A5.08,5.08,0,0,0,24,85a7.8,7.8,0,0,0-1.43,5.1A7.93,7.93,0,0,0,24,95.29,5.07,5.07,0,0,0,28.16,97a5,5,0,0,0,4.15-1.71,8.06,8.06,0,0,0,1.41-5.16A8,8,0,0,0,32.31,85Zm-8.46,10.4a8.18,8.18,0,0,1-1.47-5.28,8.09,8.09,0,0,1,1.47-5.23,5.31,5.31,0,0,1,4.34-1.8,5.16,5.16,0,0,1,4.28,1.79,8.18,8.18,0,0,1,1.45,5.24,8.29,8.29,0,0,1-1.45,5.28,5.21,5.21,0,0,1-4.31,1.79A5.27,5.27,0,0,1,23.85,95.42Z"/><path d="M47.61,94.17A4.19,4.19,0,0,1,46,97.69,7.1,7.1,0,0,1,41.51,99a11.17,11.17,0,0,1-4.68-.78V96.25a12,12,0,0,0,2.29.71,12.23,12.23,0,0,0,2.46.25,5,5,0,0,0,3-.75,2.46,2.46,0,0,0,1-2.1,2.68,2.68,0,0,0-.36-1.46A3.25,3.25,0,0,0,44,91.85a15.64,15.64,0,0,0-2.54-1.09,8.23,8.23,0,0,1-3.42-2,4.49,4.49,0,0,1-1-3.06,3.81,3.81,0,0,1,1.49-3.15,6.18,6.18,0,0,1,3.94-1.17,11.49,11.49,0,0,1,4.69.94L46.55,84a10.67,10.67,0,0,0-4.12-.89,4,4,0,0,0-2.47.68,2.22,2.22,0,0,0-.89,1.89,2.9,2.9,0,0,0,.32,1.46,3.17,3.17,0,0,0,1.1,1,14.71,14.71,0,0,0,2.4,1,9.32,9.32,0,0,1,3.7,2.06A4,4,0,0,1,47.61,94.17Z"/><path class="cls-1" d="M36.63,98.3V96l.27.12a12.44,12.44,0,0,0,2.26.69,11.91,11.91,0,0,0,2.42.25,4.82,4.82,0,0,0,2.88-.7,2.3,2.3,0,0,0,.93-2A2.41,2.41,0,0,0,45.06,93h0a3,3,0,0,0-1.13-1h0A15.47,15.47,0,0,0,41.42,91a8.44,8.44,0,0,1-3.5-2.09h0a4.66,4.66,0,0,1-1.07-3.19,4,4,0,0,1,1.56-3.31,6.44,6.44,0,0,1,4.07-1.21,11.71,11.71,0,0,1,4.77.95l.18.08-.76,2.11-.19-.09a10.56,10.56,0,0,0-4-.87,3.76,3.76,0,0,0-2.35.64,2,2,0,0,0-.82,1.73,2.68,2.68,0,0,0,.31,1.36,2.86,2.86,0,0,0,1,1,14.54,14.54,0,0,0,2.35,1,9.56,9.56,0,0,1,3.79,2.11,4.31,4.31,0,0,1,1.07,3,4.38,4.38,0,0,1-1.72,3.68,7.31,7.31,0,0,1-4.58,1.31,11.37,11.37,0,0,1-4.77-.8Zm10-7a9.32,9.32,0,0,0-3.7-2.06,14.71,14.71,0,0,1-2.4-1,3.17,3.17,0,0,1-1.1-1,2.9,2.9,0,0,1-.32-1.46A2.22,2.22,0,0,1,40,83.81a4,4,0,0,1,2.47-.68,10.56,10.56,0,0,1,3.94.81l.18.08.62-1.73a11.49,11.49,0,0,0-4.69-.94,6.18,6.18,0,0,0-3.94,1.17,3.81,3.81,0,0,0-1.49,3.15,4.49,4.49,0,0,0,1,3.06,8.23,8.23,0,0,0,3.42,2A15.64,15.64,0,0,1,44,91.85a3.25,3.25,0,0,1,1.2,1.05,2.68,2.68,0,0,1,.36,1.46,2.46,2.46,0,0,1-1,2.1,5,5,0,0,1-3,.75A12.23,12.23,0,0,1,39.12,97,13.49,13.49,0,0,1,37,96.34l-.2-.09v1.93a11.17,11.17,0,0,0,4.68.78A7.1,7.1,0,0,0,46,97.69a4.19,4.19,0,0,0,1.64-3.52A4,4,0,0,0,46.59,91.31Z"/><path d="M58.74,98.73H49.19V81.59h9.55v1.77H51.18v5.52h7.11v1.76H51.18v6.3h7.56Z"/><path class="cls-1" d="M58.94,98.93H49V81.39h9.95v2.17H51.38v5.12h7.11v2.16H51.38v5.91h7.56Zm-7.76-2v-6.3h7.11V88.88H51.18V83.36h7.56V81.59H49.19V98.73h9.55V96.94Z"/><path class="cls-1" d="M67.14,97.1a11.12,11.12,0,0,0,4-.8V98a8.72,8.72,0,0,1-4,.8,6.79,6.79,0,0,1-5.46-2.25,9.78,9.78,0,0,1-1.93-6.49c0-2.91.67-5.12,2-6.65a6.93,6.93,0,0,1,5.6-2.31,11.22,11.22,0,0,1,2.36.26,8.88,8.88,0,0,1,1.61.5l-.6,1.72a10.9,10.9,0,0,0-1.59-.47,7.75,7.75,0,0,0-1.85-.25,4.83,4.83,0,0,0-4.1,1.83,8.82,8.82,0,0,0-1.35,5.34,8.73,8.73,0,0,0,1.31,5.17h0A4.6,4.6,0,0,0,67.14,97.1Z"/><path class="cls-1" d="M71.37,96v2.15l-.11.06a9,9,0,0,1-4.05.82,7,7,0,0,1-5.61-2.32h0a10,10,0,0,1-2-6.62q0-4.41,2-6.78a7.09,7.09,0,0,1,5.75-2.38,11.06,11.06,0,0,1,2.41.27,8.92,8.92,0,0,1,1.64.51l.16.08-.72,2.08-.19-.07a11.55,11.55,0,0,0-1.57-.47h0a7.84,7.84,0,0,0-1.8-.24,4.62,4.62,0,0,0-3.94,1.75,8.64,8.64,0,0,0-1.31,5.22,8.56,8.56,0,0,0,1.27,5h0l-.16.11h0a8.73,8.73,0,0,1-1.31-5.17,8.82,8.82,0,0,1,1.35-5.34,4.83,4.83,0,0,1,4.1-1.83,7.75,7.75,0,0,1,1.85.25,11.44,11.44,0,0,1,1.4.4l.19.07.6-1.72a8.88,8.88,0,0,0-1.61-.5,11.22,11.22,0,0,0-2.36-.26,6.93,6.93,0,0,0-5.6,2.31c-1.29,1.53-2,3.74-2,6.65a9.78,9.78,0,0,0,1.93,6.49,6.79,6.79,0,0,0,5.46,2.25,8.72,8.72,0,0,0,4-.8V96.3l-.2.07a10.78,10.78,0,0,1-3.83.73,4.6,4.6,0,0,1-4-1.87l.16-.11a4.41,4.41,0,0,0,3.81,1.78,10.78,10.78,0,0,0,4-.79Z"/><path d="M77.94,98.82h-2V86.3c0-1,0-2,.1-3-.17.17-.37.35-.58.53s-1.19,1-2.94,2.35l-1.09-1.37,4.78-3.6h1.73Z"/><path d="M92.64,88.75q0,10.32-8.2,10.31a8.59,8.59,0,0,1-2.27-.24V97.1a7.39,7.39,0,0,0,2.24.32,5.54,5.54,0,0,0,4.47-1.78,8.82,8.82,0,0,0,1.66-5.48h-.15a4.38,4.38,0,0,1-1.8,1.52,5.93,5.93,0,0,1-2.53.52,5.18,5.18,0,0,1-3.81-1.39,5.27,5.27,0,0,1-1.4-3.9,5.89,5.89,0,0,1,1.56-4.32,6.12,6.12,0,0,1,7.36-.66,5.72,5.72,0,0,1,2.13,2.68A10.67,10.67,0,0,1,92.64,88.75Zm-6.08-6a3.43,3.43,0,0,0-2.72,1.1,4.5,4.5,0,0,0-1,3.08,4,4,0,0,0,.89,2.73,3.47,3.47,0,0,0,2.7,1,4.89,4.89,0,0,0,2.07-.44A3.68,3.68,0,0,0,90,88.94a2.76,2.76,0,0,0,.54-1.61,5.36,5.36,0,0,0-.5-2.33,4.11,4.11,0,0,0-1.42-1.68A3.61,3.61,0,0,0,86.56,82.71Z"/><path class="cls-1" d="M78.14,99h-2.4V86.3c0-.86,0-1.68.07-2.47l-.22.19c-.22.19-1.2,1-2.94,2.35l-.16.13-1.34-1.69,5-3.76h2ZM75.83,83.55l.21-.21c0,.1,0,.2,0,.3,0,.84-.08,1.73-.08,2.66V98.82h2V81.25H76.21l-4.78,3.6,1.09,1.37c1.75-1.38,2.73-2.16,2.94-2.35ZM82,99V96.83l.26.08a7.21,7.21,0,0,0,2.18.31,5.33,5.33,0,0,0,4.32-1.71,8.34,8.34,0,0,0,1.59-4.92,4.52,4.52,0,0,1-1.65,1.27h0a6.31,6.31,0,0,1-2.61.53,5.4,5.4,0,0,1-4-1.45,5.46,5.46,0,0,1-1.46-4,6.07,6.07,0,0,1,1.62-4.46,6.32,6.32,0,0,1,7.61-.69,5.91,5.91,0,0,1,2.2,2.77,10.74,10.74,0,0,1,.76,4.22c0,3.46-.69,6.09-2.1,7.86s-3.52,2.65-6.3,2.65A8.71,8.71,0,0,1,82.11,99ZM91.9,84.61a5.72,5.72,0,0,0-2.13-2.68,6.12,6.12,0,0,0-7.36.66,5.89,5.89,0,0,0-1.56,4.32,5.27,5.27,0,0,0,1.4,3.9,5.18,5.18,0,0,0,3.81,1.39,5.93,5.93,0,0,0,2.53-.52,4.4,4.4,0,0,0,1.75-1.44l0-.08h.15a.38.38,0,0,1,0,.1v.1a8.62,8.62,0,0,1-1.65,5.28,5.54,5.54,0,0,1-4.47,1.78,7.59,7.59,0,0,1-2-.26l-.2-.06v1.72a8.59,8.59,0,0,0,2.27.24q8.2,0,8.2-10.31A10.67,10.67,0,0,0,91.9,84.61Z"/><ellipse class="cls-2" cx="45.7" cy="27.67" rx="8.05" ry="7.97"/><path class="cls-3" d="M27.39,19.37C29.85,8.28,75.49-12.84,84.2,38.08c0,16.56-10.43,30.16-25,34.25-1.55.43-2.23-1.92-1-2.93a37.69,37.69,0,0,0,14.2-31.93c-.45-13.11-12-25.19-26.35-25.19C38.63,12.28,32,14.75,27.39,19.37Z"/><path class="cls-4" d="M27.45,19.31c-4.6,4.56-7.9,11.77-7.9,22.27,0,10.85,6.3,16,11.4,17-13.27,1.25-27.17-20.7-12.23-48C26,3.44,35.84,0,46.1,0A38.1,38.1,0,0,1,84.17,37.92a33.21,33.21,0,0,1-2.26,12.84C86.76,5.5,43.22.09,27.45,19.31Z"/><path class="cls-5" d="M31,58.58a7.73,7.73,0,0,0,6.27-1.12c1.3-1,2.73-3,2.73-7.18V46.81a6.2,6.2,0,0,1,12.39,0v3.47c0,7.22-2.68,13.15-7.53,16.88a20.14,20.14,0,0,1-16.31,3.45C17.29,68.36,7.2,57.8,7.2,41.49c0-13.18,4.21-23.75,11.56-31A37.52,37.52,0,0,1,41.69,0C7.2,5.7,8.44,55.19,31,58.58Z"/></g></g></svg>